<svg xmlns="http://www.w3.org/2000/svg" width="41" height="40" viewBox="0 0 41 40" fill="none">
    <rect x="0.0107422" y="-6.10352e-05" width="40" height="40" rx="8" fill="url(#paint0_linear_2_2715)"/>
    <g filter="url(#filter0_d_2_2715)" transform="translate(8.5, 8.5)">
        <path d="M17 8C8 10 5.9 16.17 3.82 21.34l1.89.66.95-2.3c.48.17.98.3 1.34.3C19 20 22 3 22 3c-1 2-8 2.25-13 3.25S2 11.5 2 13.5s1.75 3.75 1.75 3.75C7 8 17 8 17 8" style="fill: rgb(255, 255, 255);"/>
    </g>
    <rect x="1.06074" y="1.04994" width="37.9" height="37.9" rx="6.95" stroke="white" stroke-opacity="0.15" stroke-width="2.1"/>
    <defs>
        <filter id="filter0_d_2_2715" x="2.01074" y="1.99994" width="36" height="36" filterUnits="userSpaceOnUse" color-interpolation-filters="sRGB">
            <feFlood flood-opacity="0" result="BackgroundImageFix"/>
            <feColorMatrix in="SourceAlpha" type="matrix" values="0 0 0 0 0 0 0 0 0 0 0 0 0 0 0 0 0 0 127 0" result="hardAlpha"/>
            <feOffset/>
            <feGaussianBlur stdDeviation="2"/>
            <feComposite in2="hardAlpha" operator="out"/>
            <feColorMatrix type="matrix" values="0 0 0 0 0 0 0 0 0 0 0 0 0 0 0 0 0 0 0.25 0"/>
            <feBlend mode="normal" in2="BackgroundImageFix" result="effect1_dropShadow_2_2715"/>
            <feBlend mode="normal" in="SourceGraphic" in2="effect1_dropShadow_2_2715" result="shape"/>
        </filter>
        <linearGradient id="paint0_linear_2_2715" x1="20.0107" y1="-6.10351e-05" x2="20.0107" y2="39.9999" gradientUnits="userSpaceOnUse">
            <stop stop-color="#1D262D"/>
            <stop offset="1" stop-color="#1f2937"/>
        </linearGradient>
    </defs>
</svg>